# xmcd CD database file
#
# Track frame offsets:
#	150
#	31640
#	56092
#	82052
#	105452
#	131815
#	161000
#	199875
#	226052
#	249315
#	270980
#	296880
#
# Disc length: 4347 seconds
#
# Revision: 4
# Processed by: cddbd v1.5.1PL0 Copyright (c) Steve Scherf et al.
# Submitted via: jetAudio 5
#
DISCID=a210f90c
DTITLE=Misia - Love and Ballads
DYEAR=1900
DGENRE=
TTITLE0=Everything
TTITLE1=眠れぬ夜は君のせい (잠들지 못하는 밤은 네 탓)
TTITLE2=忘れない日 (잊을 수 없는 날들)
TTITLE3=キスして抱きしめて (키스해줘 꼭 안아줘)
TTITLE4=あの夏のままで (그 여름 그대로)
TTITLE5=It's Just Love
TTITLE6=The Glory Day
TTITLE7=あの日のように (그 날처럼)
TTITLE8=飛び方を忘れた小さな鳥 (Star Ocean Ver.) (나는 방법을 잊은 작은
TTITLE8=새)
TTITLE9=時をとめて (시간을 멈추고)
TTITLE10=星の降る丘 (별이 내리는 언덕)
TTITLE11=果てなく屬くスト一リ一 (끝없이 계속되는 이야기)
EXTD=
EXTT0=
EXTT1=
EXTT2=
EXTT3=
EXTT4=
EXTT5=
EXTT6=
EXTT7=
EXTT8=
EXTT9=
EXTT10=
EXTT11=
PLAYORDER=
